<?xml version="1.0" encoding="utf-8"?>
<!-- Designed by Vexels.com - 2020 All Rights Reserved - https://vexels.com/terms-and-conditions/  -->
<svg version="1.1" id="Layer_1" xmlns="http://www.w3.org/2000/svg"
	xmlns:xlink="http://www.w3.org/1999/xlink" x="0px" y="0px" viewBox="0 0 1200 1200"
	enable-background="new 0 0 1200 1200" xml:space="preserve">
<path fill="#ffffffee " d="M1141.153,688.708h-34.038c-4.078,0-7.628,2.788-8.594,6.75l-9.621,39.452l-25.339-282.065
	c-0.411-4.569-4.18-8.031-8.767-8.055c-4.59,0-8.393,3.425-8.848,7.966l-24.332,243.474l-7.459-14.307
	c-1.53-2.934-4.535-4.756-7.844-4.756h-0.08c-3.368,0.04-6.378,1.933-7.857,4.941l-12.639,25.685l-7.605-14.377
	c-1.536-2.906-4.533-4.711-7.82-4.711h-54.851l-29.376-43.747c-1.591-2.484-4.318-4.037-7.29-4.149
	c-5.535-0.225-8.771,3.873-13.978,11.109c-2.932,4.077-6.757,9.732-11.368,16.808c-5.093,7.815-10.124,15.809-12.733,19.978H802.92
	l-11.543-24.867c-1.245-3.338-4.374-5.593-7.96-5.721c-3.595-0.117-6.897,1.923-8.379,5.197l-12.712,25.627h-26.389
	c-0.917,0-12.241-0.745-20.694-1.744c-4.467-0.528-8.729-2.171-12.392-4.782c-0.001-0.001-0.002-0.001-0.002-0.001
	c-7.325-4.946-10.42-6.033-12.248-7.495c-0.876-0.701-3.239-4.82-3.598-5.883c-0.672-1.985-0.574-4.118-1.363-6.07
	c-1.146-2.834-3.195-5.632-5.066-7.99c-2.851-3.592-9.534-2.389-13.709-2.361c-1.595,0.011-3.825,0.523-5.274,0.106
	c-0.824-0.237-0.422-0.047-0.727-0.858c-0.189-0.503-0.191-1.161-0.279-1.691c-0.487-2.937-1.009-5.866-1.579-8.787
	c-1.046-5.36-1.888-10.737-2.697-16.138c-1.274-8.511-2.405-17.044-3.664-25.557c-0.124-0.835-0.608-2.284-0.381-3.013
	c0.231-0.741,0.784-0.911,0.806-1.852c0.027-1.167-0.279-3.421-0.907-4.292c-0.439-0.609-0.618-0.001-0.833-1.109
	c-0.149-0.764-0.087-1.615-0.149-2.398c-0.095-1.2-0.228-2.396-0.379-3.591c-0.928-7.344-2.236-14.638-3.128-21.985
	c-0.221-1.815-0.387-3.637-0.549-5.458c-0.106-1.194-0.435-2.522-0.395-3.727c0.03-0.885,0.599-1.202,0.71-2.076
	c0.055-0.433-0.145-0.945-0.24-1.37c-0.231-1.027-0.684-1.096-1.021-1.774c-0.588-1.182-0.484-3.411-0.667-4.706
	c-0.195-1.373-0.401-2.744-0.618-4.113c-2.474-15.649-4.946-31.303-7.195-46.986c-0.244-1.702-0.461-3.411-0.672-5.118
	c1.981,0.593,3.757,2.485,5.952,2.191c2.64-0.354,2.122-3.352,2.168-5.354c0.063-2.741-0.878-4.961-2.04-7.463
	c-0.561-1.207-1.496-2.187-2.629-2.887c-1.578-0.975-2.887-2.252-4.432-3.257c0.953-1.652,2.675-4.851-0.753-4.412
	c-1.271,0.163-2.457,0.596-3.75,0.707c-2.065,0.177-3.654,0.616-4.995,2.383c-1.329,1.751,0.019,3.023,0.972,4.634
	c0.862,1.457,1.578,1.7,0.877,3.161c-0.487,1.014-1.073,1.992-1.62,2.974c-0.154,0.277-0.309,0.531-0.466,0.823
	c-0.394,0.731-0.576,1.193-1.103,1.451c-0.618,0.303-2.161,0.301-2.967,0.583c-3.582,1.253-7.104,1.751-10.859,2.197
	c-2.387,0.284-4.724,0.912-7.087,1.348c-1.587,0.293-2.947,0.331-4.495-0.181c-1.879-0.621-1.751-1.373-1.206-3.258
	c0.745-2.574,2.416-4.611,2.754-7.334c0.22-1.77,0.31-3.501,0.7-5.248c0.28-1.254,0.563-2.493,0.596-3.786
	c0.028-1.089-0.267-2.341,0.124-3.384c0.356-0.948,1.372-1.634,1.955-2.198c1.674-1.146,3.368-2.272,5.037-3.416
	c1.271-0.871,1.828-1.416,1.76-2.98c-0.082-1.888-0.715-2.291-2.163-3.314c-0.539-0.381-1.923-1.192-2.136-1.768
	c-0.259-0.699,0.264-2.831,0.316-3.478c0.629,0.535,2.599,1.064,3.433,1.253c0.686,0.155,1.477,0.18,2.181,0.254
	c0.709,0.075,1.62,0.271,2.325,0.062c1.746-0.518,1.704-2.154,1.347-3.598c-0.265-1.072-0.469-0.748,0.524-1.409
	c1.213-0.807,1.424-1.489,0.72-2.944c0.992,0.078,2.134-0.622,2.471-1.522c0.228-0.609-0.107-1.59,0.304-2.077
	c1.04-1.23,3.009-0.228,2.789-2.535c-0.101-1.06-0.757-2.01-1.13-2.987c-0.53-1.391-0.909-2.884-1.245-4.332
	c0.341,0.233,1.549,0.047,1.974,0.054c1.871,0.032,3.874-0.153,5.736-0.438c1.833-0.281,7.705-2.61,6.429-5.519
	c-0.701-1.598-5.32-1.729-7.018-2.271c-1.684-0.539-4.093-2.061-5.416-3.309c-1.701-1.605-2.654-3.968-4.424-5.636
	c-2.091-1.971-3.977-3.35-6.81-4.084c-2.312-0.599-4.593-1.168-6.997-1.108c-0.84,0.021-1.691,0.16-2.526,0.031
	c-0.584-0.09-1.148-0.439-1.755-0.403c-1.213,0.071-1.716,1.229-2.636,1.768c-3.153,1.845-6.175,2.87-8.236,6.187
	c-2.154,3.468-2.816,7.221-2.492,11.236c0.117,1.442,0.275,2.924,0.871,4.257c0.275,0.614,1.264,1.439,0.33,1.845
	c-0.578,0.252-2.661-0.907-3.431-1.044c-1.081-0.192-2.122-0.328-3.213-0.111c-2.228,0.444-4.431,2.674-5.919,4.213
	c-1.762,1.822-3.445,3.719-5.43,5.307c-1.385,1.108-2.595,1.793-3.018,3.617c-0.323,1.396,0.559,4.096-0.276,5.358
	c-1.276,1.928-4.496-1.009-5.914-1.581c-1.48-0.597-2.236-2.109-2.802-3.618c-1.51-4.024,0.323-8.64-1.742-12.633
	c-1.932-3.737-6.701-5.864-10.641-6.582c-1.492-0.272-2.974-0.285-4.474-0.428c-2.808-0.267-5.555-0.927-8.383-1.107
	c-3.118-0.198-6.559-0.129-9.663,0.299c-3.422,0.472-5.42,4.647-6.795,7.483c-0.662,1.365-1.087,2.842-1.141,4.358
	c-0.058,1.619-0.747,3.634-0.291,5.272c0.159,0.571,0.709,1.03,0.851,1.534c0.247,0.874,0.217,0.577-0.446,1.458
	c-0.354,0.47-0.653,0.974-0.979,1.462c-0.743,1.116-1.605,2.13-2.097,3.395c-2.136,5.488-2.411,11.423-3.744,17.097
	c-1.391,5.921-3.38,11.773-5.208,17.578c-1.667,5.294-3.193,10.764-4.319,16.204c-0.767,3.705-2.392,8.157-2.028,11.942
	c0.521,5.405,2.917,10.512,2.064,16.07c-0.458,2.986-1.591,5.284-0.288,8.233c0.969,2.193,2.196,4.105,3.533,6.099
	c2.379,3.547,4.458,8.333,7.839,10.978c3.038,2.376,6.195,3.394,10.052,3.328c3.487-0.06,7.006,0.001,10.495,0.02
	c1.913,0.011,3.769-0.001,5.309-1.315c0.193,1.131,0.478,2.159,0.83,3.248c0.597,1.848,0.56,3.613,0.738,5.507
	c0.133,1.414,0.852,2.137,1.336,3.376c0.373,0.954,0.325,2.252,0.373,3.241c0.12,2.467-0.082,4.926-0.132,7.391
	c-0.145,7.168-0.925,14.335-1.39,21.494c-0.244,3.75-0.372,7.5-0.919,11.221c-0.924,6.275-3.4,12.369-5.348,18.366
	c-1.972,6.069-2.38,12.509-1.485,18.827c0.633,4.47,0.559,9.018,1.236,13.495c0.404,2.669,0.689,5.337,1.019,8.017
	c0.615,5.002,1.166,10.259,0.964,15.31c-0.059,1.468-0.765,3.636-0.203,4.991c0.35,0.844,2.502,2.059,2.25,3.091
	c-0.067,0.276-0.627,0.586-1.163,0.851h-96.624l-12.712-25.627c-1.482-3.274-4.784-5.314-8.378-5.197
	c-3.586,0.128-6.715,2.384-7.96,5.721l-11.543,24.867h-37.792c-2.609-4.17-7.64-12.163-12.733-19.978
	c-4.611-7.076-8.436-12.731-11.368-16.808c-5.207-7.235-8.442-11.334-13.978-11.109c-2.973,0.111-5.7,1.665-7.29,4.149
	l-29.376,43.747H229.69c-3.287,0-6.283,1.805-7.82,4.711l-7.605,14.377l-12.639-25.685c-1.479-3.008-4.489-4.901-7.857-4.941h-0.081
	c-3.297,0-6.32,1.833-7.845,4.757l-7.459,14.306l-24.332-243.474c-0.455-4.542-4.257-7.966-8.848-7.966
	c-4.587,0.023-8.356,3.486-8.767,8.055L111.1,734.91l-9.621-39.451c-0.966-3.963-4.516-6.751-8.595-6.751H59.105
	c-4.604,0-8.634,3.41-9.065,7.994c-0.495,5.26,3.647,9.699,8.806,9.699h27.089l20.61,84.509c0.969,3.974,4.5,6.751,8.59,6.751
	c0.22,0,0.44-0.009,0.666-0.025c4.333-0.324,7.76-3.702,8.15-8.03l21.768-242.315l18.008,180.188
	c0.386,3.862,3.317,7.072,7.127,7.807c3.873,0.745,7.697-1.101,9.519-4.596l13.087-25.101l12.582,25.57
	c1.475,2.998,4.466,4.891,7.809,4.94l0.13,0.001c3.288,0,6.284-1.805,7.818-4.711l13.218-24.988h54.238
	c2.953,0,5.698-1.463,7.344-3.915l25.666-38.22c6,8.588,15.596,23.397,24.578,37.933c1.613,2.611,4.46,4.202,7.53,4.202h48.779
	c3.648,0,6.971-2.29,8.248-5.657l6.138-11.311l6.404,12.025c1.432,3.146,4.592,5.179,8.05,5.179l196.271,0v0l139.741,0
	c3.458,0,6.619-2.033,8.05-5.179l6.404-12.025l6.138,11.311c1.277,3.367,4.6,5.657,8.248,5.657h48.779
	c3.089,0,5.902-1.569,7.526-4.196c8.983-14.538,18.58-29.35,24.581-37.939l25.666,38.22c1.645,2.452,4.391,3.915,7.344,3.915h54.238
	L978.2,731.39c1.534,2.905,4.53,4.711,7.819,4.711l0.129-0.001c3.342-0.049,6.333-1.942,7.808-4.94l12.583-25.57l13.087,25.101
	c1.823,3.495,5.646,5.341,9.519,4.596c3.81-0.735,6.741-3.945,7.127-7.807l18.008-180.188l21.768,242.315
	c0.39,4.329,3.817,7.706,8.15,8.03c0.226,0.017,0.446,0.025,0.666,0.025c4.089-0.001,7.621-2.777,8.59-6.751l20.61-84.509h26.83
	c4.604,0,8.634-3.411,9.065-7.994C1150.455,693.147,1146.313,688.708,1141.153,688.708z M640.637,477.965
	c0.528,1.382,0.9,3.289,0.9,4.786c-0.43-0.02-1.374,0.144-1.706-0.057c-0.424-0.257-0.619-1.219-0.777-1.665
	c-0.685-1.941-1.431-4.226-1.926-6.038C638.814,476.063,639.836,475.87,640.637,477.965z M586.295,527.767
	c0.815,0.271,0.472,0.932,1.031,1.591c2.213,2.608,8.071-1.689,9.209-3.591c1.545-2.583,0.687-5.893,2.284-8.337
	c1.382-2.115,2.486-2.516,2.559-5.264c0.038-1.412-0.628-3.42-0.041-4.723c1.137-2.524,5.612-2.547,8.021-2.804
	c3.168-0.338,6.231-0.848,9.377-1.29c1.039-0.146,2.09-0.114,3.122-0.326c1.97-0.405,1.773-1.229,2.426-2.833
	c0.368-0.904,0.946-1.733,1.375-2.615c0.69-1.419,0.732-2.966,1.292-4.394c0.297-0.756,0.302-0.732,1.098-1.026
	c1.498-0.552,2.091-0.699,3.08-2.012c0.532-0.706,1.402-1.737,2.483-1.477c0.225,0.054,0.34,0.032,0.397-0.008
	c0.011,0.127,0.065,0.363,0.22,0.779c0.168,0.447,0.181,1.166,0.26,1.663c0.219,1.368,0.453,2.733,0.699,4.096
	c2.849,15.778,4.739,31.724,7.18,47.566c0.172,1.115,0.694,2.845,0.347,3.733c-0.081,0.208-0.514,0.286-0.618,0.531
	c-0.341,0.805-0.305,1.039-0.175,1.939c0.182,1.26,0.687,1.561,1.432,2.43c1.3,1.518,1.115,5.002,1.359,6.995
	c0.878,7.172,1.901,14.341,2.964,21.488c0.278,1.871,0.598,3.737,0.873,5.608c0.182,1.238,0.337,2.478,0.475,3.722
	c0.206,1.851-0.13,0.853-0.681,2.178c-0.303,0.728,0.116,2.989,0.375,3.615c0.343,0.828,0.976,0.708,1.385,1.292
	c0.266,0.381,0.173,1.444,0.235,1.898c0.708,5.197,1.534,10.37,2.458,15.534c1.967,10.993,4.174,21.962,5.941,32.989
	c0.32,1.997,0.579,3.991,0.81,6c-0.834-0.045-1.67-0.069-2.505-0.076c-5.111,0.05-9.341-3.751-14.355-4.727
	c-1.434-0.279-2.899-0.439-4.344-0.655c-0.926-0.138-3.501-0.015-4.212-0.656c-0.831-0.749-0.425-2.609-0.915-3.655
	c-0.6-1.282-1.42-1.781-2.825-1.944c-2.028-0.236-4.15,0.149-6.154-0.148c-2.087-0.31-4.067-1.355-5.827-2.451
	c-1.777-1.107-5.234-2.989-6.135-5.001c-0.833-1.861-1.328-4.623-1.539-6.562c-0.229-2.106,0.749-4.328,1.006-6.436
	c0.187-1.529,0.406-3.06,0.692-4.574c-0.006,0-0.031,0.05-0.03,0.047c2.454-9.614,2.9-20.244,7.337-29.502
	c2.187-4.565,5.024-9.537,4.493-14.781c-0.254-2.51-1.213-5.332-2.953-7.193c-1.499-1.604-3.077-2.596-4.502-3.769
	c-3.078-2.536-5.881-5.325-8.99-7.834c-4.298-3.468-8.62-6.869-12.293-11.022c-0.533-0.602-1.093-1.189-1.611-1.803
	c-0.68-0.807-0.818-1.31-1.215-2.267c-0.456-1.1-0.919-1.279-1.847-1.884c-0.834-0.544-1.14-1.311-1.928-1.91
	c-0.927-0.704-2.078-0.871-2.878-1.804C585.436,531.424,584.365,527.126,586.295,527.767z M556.501,452.184
	c0.077-0.546,0.274-3.697,0.821-3.872c0.436-0.139,2.42,1.612,3.17,1.734c-1.247,1.142-2.303,3.142-2.945,4.635
	c-0.624,1.453-1.854,4.073-2.019,5.564C555.802,457.577,556.127,454.84,556.501,452.184z M551.272,654.186
	c0.366-4.579,0.712-9.288,1.406-13.827c0.425-2.777,1.331-5.443,1.883-8.192c0.469-2.334,1.004-4.626,1.858-6.854
	c1.234-3.22,3.984-4.724,5.704-7.521c1.586-2.58,2.918-5.598,3.392-8.599c0.374-2.366,0.157-4.719,0.894-7.036
	c0.457-1.436,1.104-2.872,1.716-4.253c1.609-3.626,3.44-7.142,5.058-10.764c0.964-2.159,2.127-4.236,2.969-6.45
	c0.372-0.977,0.708-1.995,1.001-2.997c0.165-0.566,0.209-1.396,0.504-1.898c0.64-1.091-0.193-0.42,0.891-0.554
	c4.072-0.502,8.598,1.919,12.26,3.424c1.321,0.543,4.3,1.146,5.139,2.424c0.674,1.027-0.571,3.569-0.974,4.722
	c-1.059,3.026-2.404,6.129-2.823,9.346c-0.585,4.49-0.234,9.214-0.339,13.739c-0.205,8.823,0.037,17.708-0.576,26.511
	c-0.209,3.006-1.579,7.009-0.307,9.686c0.253,0.533,0.384,0.38,0.475,1.133c0.11,0.91-0.199,2.384-0.3,3.259
	c-0.13,1.129-0.794,3.116-0.158,4.07c0.596,0.895,2.483,0.779,3.453,1.026c0.788,0.201,1.573,0.414,2.361,0.613
	c-0.109,0.056-0.219,0.112-0.328,0.168c-1.504,0.886-2.883,1.914-4.432,2.741c-2.268,1.211-4.706,2.047-6.966,3.28
	c-3.747,2.043-7.24,4.59-10.969,6.692c-3.935,2.218-7.854,4.022-10.971,7.392c-1.133,1.225-2.218,2.26-3.987,1.776
	c-2.192-0.6-2.94-1.916-3.701-3.902c-1.071-2.798-2.706-5.503-3.55-8.361C550.893,661.726,551.003,657.541,551.272,654.186z
	 M542.602,507.091c0.985-2.223,2.542-4.317,3.307-6.651c0.731-2.23,1.079-4.524,1.74-6.764c0.135-0.459,1.238-3.16,1.429-4.063
	c-0.229,5.677-0.97,10.841-2.471,16.204c-1.403,5.014-1.292,10.475-3.076,15.322c0.114-1.722-0.641-3.769-1.037-5.401
	C541.773,512.768,541.322,509.98,542.602,507.091z"/>
</svg>